<svg xmlns="http://www.w3.org/2000/svg" viewBox="0 0 124.15 79.04"><defs><style>.cls-1{fill:#116ba7;}.cls-2{fill:#fff;}.cls-3{fill:#6bd3c4;}.cls-4{fill:none;stroke:#3fb3cc;stroke-miterlimit:10;stroke-width:3.17px;}</style></defs><title>Asset 31logos</title><g id="Layer_2" data-name="Layer 2"><g id="Layer_1-2" data-name="Layer 1"><path class="cls-1" d="M116.84,3a4.31,4.31,0,0,1,4.31,4.31V71.73A4.31,4.31,0,0,1,116.84,76H7.31A4.31,4.31,0,0,1,3,71.73V7.31A4.31,4.31,0,0,1,7.31,3H116.84m0-3H7.31A7.33,7.33,0,0,0,0,7.31V71.73A7.33,7.33,0,0,0,7.31,79H116.84a7.33,7.33,0,0,0,7.31-7.31V7.31A7.33,7.33,0,0,0,116.84,0Z"/><circle class="cls-2" cx="8.35" cy="9.28" r="0.75"/><path class="cls-3" d="M8.35,6.11a3.17,3.17,0,1,0,3.17,3.17A3.17,3.17,0,0,0,8.35,6.11Z"/><circle class="cls-2" cx="25.38" cy="9.28" r="0.75"/><path class="cls-3" d="M25.38,6.11a3.17,3.17,0,1,0,3.17,3.17,3.17,3.17,0,0,0-3.17-3.17Z"/><circle class="cls-2" cx="16.99" cy="9.28" r="0.75"/><path class="cls-3" d="M17,6.11a3.17,3.17,0,1,0,3.16,3.17A3.17,3.17,0,0,0,17,6.11Z"/><line class="cls-4" x1="3.2" y1="17.41" x2="120.74" y2="17.41"/><line class="cls-4" x1="63.41" y1="19" x2="63.41" y2="75.64"/><line class="cls-4" x1="93.52" y1="19" x2="93.52" y2="75.64"/><line class="cls-4" x1="53.51" y1="22.96" x2="5.97" y2="22.96"/><line class="cls-4" x1="40.43" y1="28.9" x2="5.97" y2="28.9"/><line class="cls-4" x1="23" y1="34.84" x2="5.97" y2="34.84"/><line class="cls-4" x1="25.78" y1="40.78" x2="8.74" y2="40.78"/><line class="cls-4" x1="29.74" y1="46.72" x2="12.7" y2="46.72"/><line class="cls-4" x1="43.21" y1="52.67" x2="16.67" y2="52.67"/><line class="cls-4" x1="39.24" y1="58.61" x2="12.7" y2="58.61"/><line class="cls-4" x1="23.4" y1="64.55" x2="6.37" y2="64.55"/></g></g></svg>